<svg xmlns="http://www.w3.org/2000/svg" viewBox="0 0 500 500"><g id="freepik--Shadow--inject-336"><ellipse id="freepik--path--inject-336" cx="250" cy="416.24" rx="193.89" ry="11.32" style="fill:#f5f5f5"></ellipse></g><g id="freepik--Device--inject-336"><rect x="262.54" y="128.53" width="3.1" height="16.01" rx="0.69" transform="translate(400.62 -127.55) rotate(90)" style="fill:#263238"></rect><path d="M272.52,204.51h25.25a.69.69,0,0,1,.69.69v2.74a0,0,0,0,1,0,0H271.83a0,0,0,0,1,0,0v-2.74A.69.69,0,0,1,272.52,204.51Z" transform="translate(491.38 -78.92) rotate(90)" style="fill:#263238"></path><path d="M272.52,174.51h25.25a.69.69,0,0,1,.69.69v2.74a0,0,0,0,1,0,0H271.83a0,0,0,0,1,0,0v-2.74A.69.69,0,0,1,272.52,174.51Z" transform="translate(461.38 -108.92) rotate(90)" style="fill:#263238"></path><rect x="52.53" y="175.39" width="272.06" height="193.8" rx="6.63" transform="translate(460.86 83.73) rotate(90)" style="fill:#263238"></rect><rect x="55.03" y="177.89" width="272.06" height="188.8" rx="6.63" transform="translate(463.36 81.23) rotate(90)" style="fill:#fff;opacity:0.2"></rect><circle cx="194.56" cy="141.3" r="1.78" style="fill:#fff;opacity:0.6000000000000001;isolation:isolate"></circle><circle cx="186.68" cy="141.3" r="0.89" style="fill:#fff;opacity:0.6000000000000001;isolation:isolate"></circle><circle cx="191.06" cy="398.59" r="5.46" style="fill:#fff"></circle><rect x="69.64" y="179.25" width="242.84" height="177.9" transform="translate(459.26 77.13) rotate(90)" style="fill:#2AA499"></rect><rect x="73.42" y="183.03" width="235.28" height="177.9" transform="translate(463.04 80.91) rotate(90)" style="fill:#fff;opacity:0.6000000000000001;isolation:isolate"></rect><circle cx="263.92" cy="150.53" r="1.68" style="fill:#fff;opacity:0.6000000000000001;isolation:isolate"></circle><circle cx="269.72" cy="150.53" r="1.68" style="fill:#fff;opacity:0.6000000000000001;isolation:isolate"></circle><circle cx="275.52" cy="150.53" r="1.68" style="fill:#fff;opacity:0.6000000000000001;isolation:isolate"></circle><rect x="102.12" y="154.34" width="177.9" height="10.76" style="opacity:0.2;isolation:isolate"></rect><path d="M274.63,162.29H219.57a2.57,2.57,0,0,1-2.57-2.57h0a2.57,2.57,0,0,1,2.57-2.57h55.06a2.57,2.57,0,0,1,2.57,2.57h0A2.57,2.57,0,0,1,274.63,162.29Z" style="fill:#fff;opacity:0.6000000000000001;isolation:isolate"></path><rect x="102.12" y="165.1" width="130.21" height="224.52" transform="translate(334.45 554.72) rotate(180)" style="fill:#fff;opacity:0.6000000000000001;isolation:isolate"></rect><path d="M133.72,186.93H126l-1.59,3.62h-2.13l6.55-14.47h2l6.57,14.47h-2.16Zm-.72-1.65-3.12-7.09-3.12,7.09Z" style="fill:#263238"></path><path d="M149.3,190.55l-3.12-4.45c-.29,0-.6.05-.91.05H141.7v4.4h-2.07V176.08h5.64c3.76,0,6,1.9,6,5a4.56,4.56,0,0,1-3.19,4.56l3.43,4.86Zm-.06-9.42c0-2.07-1.39-3.25-4-3.25H141.7v6.51h3.51C147.85,184.39,149.24,183.19,149.24,181.13Z" style="fill:#263238"></path><path d="M157.32,177.88h-5v-1.8h12v1.8h-5v12.67h-2Z" style="fill:#263238"></path><path d="M166.57,176.08h2.07v14.47h-2.07Z" style="fill:#263238"></path><path d="M171.8,183.32a7.31,7.31,0,0,1,7.66-7.4,7.14,7.14,0,0,1,5.5,2.25l-1.34,1.3a5.36,5.36,0,0,0-4.08-1.71,5.56,5.56,0,1,0,4.08,9.38l1.34,1.3a7.17,7.17,0,0,1-5.52,2.27A7.31,7.31,0,0,1,171.8,183.32Z" style="fill:#263238"></path><path d="M187.91,176.08H190v12.67h7.83v1.8h-9.9Z" style="fill:#263238"></path><path d="M210.68,188.75v1.8h-10.5V176.08h10.21v1.8h-8.14v4.44h7.25v1.76h-7.25v4.67Z" style="fill:#263238"></path><g style="opacity:0.2;isolation:isolate"><rect x="236.67" y="169.46" width="39.1" height="28.17"></rect><path d="M237.17,200.55h14.56a.5.5,0,0,0,.5-.5.51.51,0,0,0-.5-.5H237.17a.5.5,0,0,0-.5.5A.5.5,0,0,0,237.17,200.55Z"></path><path d="M237.17,203.14h38.1a.5.5,0,0,0,0-1h-38.1a.5.5,0,1,0,0,1Z"></path><path d="M275.27,204.73h-38.1a.5.5,0,0,0-.5.5.5.5,0,0,0,.5.5h38.1a.51.51,0,0,0,.5-.5A.5.5,0,0,0,275.27,204.73Z"></path></g><g style="opacity:0.2;isolation:isolate"><rect x="236.67" y="219.46" width="39.1" height="28.17"></rect><path d="M237.17,250.55h14.56a.5.5,0,0,0,.5-.5.51.51,0,0,0-.5-.5H237.17a.5.5,0,0,0-.5.5A.5.5,0,0,0,237.17,250.55Z"></path><path d="M237.17,253.14h38.1a.5.5,0,0,0,0-1h-38.1a.5.5,0,1,0,0,1Z"></path><path d="M275.27,254.73h-38.1a.5.5,0,0,0-.5.5.5.5,0,0,0,.5.5h38.1a.51.51,0,0,0,.5-.5A.5.5,0,0,0,275.27,254.73Z"></path></g><g style="opacity:0.2;isolation:isolate"><rect x="236.67" y="269.46" width="39.1" height="28.17"></rect><path d="M237.17,300.55h14.56a.5.5,0,0,0,.5-.5.51.51,0,0,0-.5-.5H237.17a.5.5,0,0,0-.5.5A.5.5,0,0,0,237.17,300.55Z"></path><path d="M237.17,303.14h38.1a.5.5,0,0,0,0-1h-38.1a.5.5,0,1,0,0,1Z"></path><path d="M275.27,304.73h-38.1a.5.5,0,0,0-.5.5.5.5,0,0,0,.5.5h38.1a.51.51,0,0,0,.5-.5A.5.5,0,0,0,275.27,304.73Z"></path></g><g style="opacity:0.2;isolation:isolate"><rect x="236.67" y="319.46" width="39.1" height="28.17"></rect><path d="M237.17,350.55h14.56a.5.5,0,0,0,.5-.5.51.51,0,0,0-.5-.5H237.17a.5.5,0,0,0-.5.5A.5.5,0,0,0,237.17,350.55Z"></path><path d="M237.17,353.14h38.1a.5.5,0,0,0,0-1h-38.1a.5.5,0,1,0,0,1Z"></path><path d="M275.27,354.73h-38.1a.5.5,0,0,0-.5.5.5.5,0,0,0,.5.5h38.1a.51.51,0,0,0,.5-.5A.5.5,0,0,0,275.27,354.73Z"></path></g><rect x="110.09" y="201.26" width="113.93" height="63.58" style="opacity:0.2;isolation:isolate"></rect><polygon points="220.91 264.84 110.09 264.84 110.09 243.26 139.49 213.86 167.32 241.68 182.53 226.47 220.91 264.84" style="opacity:0.2;isolation:isolate"></polygon><circle cx="204.87" cy="218.91" r="9.07" style="opacity:0.2;isolation:isolate"></circle><path d="M223,283.86H121a.5.5,0,0,1-.5-.5.5.5,0,0,1,.5-.5H223a.5.5,0,0,1,.5.5A.5.5,0,0,1,223,283.86Z"></path><path d="M223,288.05H111a.5.5,0,1,1,0-1H223a.5.5,0,0,1,0,1Z"></path><path d="M223,292.24H111a.5.5,0,1,1,0-1H223a.5.5,0,1,1,0,1Z"></path><path d="M223,296.43H111a.5.5,0,0,1-.5-.5.5.5,0,0,1,.5-.5H223a.5.5,0,0,1,.5.5A.5.5,0,0,1,223,296.43Z"></path><path d="M223,300.62H111a.5.5,0,0,1-.5-.5.5.5,0,0,1,.5-.5H223a.5.5,0,0,1,.5.5A.5.5,0,0,1,223,300.62Z"></path><path d="M223,304.81H111a.5.5,0,0,1-.5-.5.5.5,0,0,1,.5-.5H223a.5.5,0,0,1,.5.5A.5.5,0,0,1,223,304.81Z"></path><path d="M223,309H111a.5.5,0,0,1-.5-.5.5.5,0,0,1,.5-.5H223a.5.5,0,0,1,.5.5A.5.5,0,0,1,223,309Z"></path><path d="M223,313.2H111a.5.5,0,0,1-.5-.5.5.5,0,0,1,.5-.5H223a.5.5,0,0,1,.5.5A.5.5,0,0,1,223,313.2Z"></path><path d="M223,317.39H111a.5.5,0,0,1-.5-.5.5.5,0,0,1,.5-.5H223a.5.5,0,0,1,.5.5A.5.5,0,0,1,223,317.39Z"></path><path d="M223,321.58H111a.5.5,0,0,1-.5-.5.5.5,0,0,1,.5-.5H223a.5.5,0,0,1,.5.5A.5.5,0,0,1,223,321.58Z"></path><path d="M163,325.77H111a.5.5,0,1,1,0-1h52a.5.5,0,1,1,0,1Z"></path><path d="M223,336H121a.5.5,0,1,1,0-1H223a.5.5,0,0,1,0,1Z"></path><path d="M223,340.15H111a.5.5,0,0,1-.5-.5.5.5,0,0,1,.5-.5H223a.5.5,0,0,1,.5.5A.5.5,0,0,1,223,340.15Z"></path><path d="M223,344.34H111a.5.5,0,0,1-.5-.5.5.5,0,0,1,.5-.5H223a.5.5,0,0,1,.5.5A.5.5,0,0,1,223,344.34Z"></path><path d="M223,348.53H111a.5.5,0,0,1-.5-.5.5.5,0,0,1,.5-.5H223a.5.5,0,0,1,.5.5A.5.5,0,0,1,223,348.53Z"></path><path d="M223,352.72H111a.5.5,0,0,1-.5-.5.5.5,0,0,1,.5-.5H223a.5.5,0,0,1,.5.5A.5.5,0,0,1,223,352.72Z"></path><path d="M223,356.92H111a.5.5,0,0,1-.5-.5.5.5,0,0,1,.5-.5H223a.5.5,0,0,1,.5.5A.5.5,0,0,1,223,356.92Z"></path><path d="M203,361.11H111a.5.5,0,0,1-.5-.5.5.5,0,0,1,.5-.5h92a.5.5,0,0,1,.5.5A.5.5,0,0,1,203,361.11Z"></path><path d="M223,268.7H111a.5.5,0,0,1-.5-.5.5.5,0,0,1,.5-.5H223a.5.5,0,0,1,.5.5A.5.5,0,0,1,223,268.7Z"></path><path d="M195.08,272.2H111a.5.5,0,1,1,0-1h84.06a.5.5,0,0,1,0,1Z"></path></g><g id="freepik--Plant--inject-336"><path d="M80.34,383.29c0-.36-1.22-36.06-7-41.7-5.62-5.46-12.08-.2-12.35,0l-.64-.77c.07-.06,7.43-6.06,13.69,0,6.08,5.92,7.27,40.9,7.32,42.39Z" style="fill:#2AA499"></path><path d="M80.84,390.31c0-.43-4-42.9,11.54-60.71l.75.66c-15.23,17.49-11.34,59.53-11.3,59.95Z" style="fill:#2AA499"></path><path d="M80.35,385.82l-1-.07c0-.48,3-48.24-8.33-58.68l.68-.74C83.42,337.1,80.48,383.83,80.35,385.82Z" style="fill:#2AA499"></path><path d="M81.83,385.79h-1c0-1.32.38-32.3,9.2-37.35a6.25,6.25,0,0,1,5.73-.56c5.33,2.21,8,11.69,8.09,12.09l-1,.27c0-.1-2.62-9.42-7.51-11.44a5.35,5.35,0,0,0-4.85.5C82.2,354.06,81.84,385.47,81.83,385.79Z" style="fill:#2AA499"></path><path d="M78.41,385.81l-1-.05c0-.25,1.33-24.45-5.2-33-1.57-2.06-3.29-3-5.08-2.91-4.26.3-7.84,6.54-7.87,6.61l-.87-.5c.15-.27,3.88-6.77,8.67-7.11,2.16-.14,4.15,1,6,3.3C79.76,361,78.47,384.8,78.41,385.81Z" style="fill:#2AA499"></path><path d="M79.75,389.11c-.17-2.35-4.27-57.67,2.94-67.43l.81.59c-7,9.47-2.79,66.19-2.75,66.76Z" style="fill:#2AA499"></path><path d="M97.7,353.52s-4.32,1.59-3,5.35,15,10,15,10,5.73-5.25.47-13.78S97.82,350.82,97.7,353.52Z" style="fill:#2AA499"></path><path d="M97.7,353.52s-4.32,1.59-3,5.35,15,10,15,10,5.73-5.25.47-13.78S97.82,350.82,97.7,353.52Z" style="fill:#fff;opacity:0.2;isolation:isolate"></path><path d="M78.91,346.36s4.6-.2,4.86,3.77-10,14.94-10,14.94-7.3-2.64-5.73-12.54S77.76,343.92,78.91,346.36Z" style="fill:#2AA499"></path><path d="M78.91,346.36s4.6-.2,4.86,3.77-10,14.94-10,14.94-7.3-2.64-5.73-12.54S77.76,343.92,78.91,346.36Z" style="fill:#fff;opacity:0.2;isolation:isolate"></path><path d="M75,327.37s3.07-.33,2.82-2.2S65.9,318.49,59,326.27c0,0,4.41,7.58,10.79,7.68S75,327.37,75,327.37Z" style="fill:#2AA499"></path><path d="M75,327.37s3.07-.33,2.82-2.2S65.9,318.49,59,326.27c0,0,4.41,7.58,10.79,7.68S75,327.37,75,327.37Z" style="fill:#fff;opacity:0.2;isolation:isolate"></path><path d="M80.73,322.83s-2.78,1.34-3.56-.38,6.59-12,16.56-9c0,0,.26,8.77-5.1,12.23S80.73,322.83,80.73,322.83Z" style="fill:#2AA499"></path><path d="M80.73,322.83s-2.78,1.34-3.56-.38,6.59-12,16.56-9c0,0,.26,8.77-5.1,12.23S80.73,322.83,80.73,322.83Z" style="fill:#fff;opacity:0.2;isolation:isolate"></path><path d="M66.2,352s2.12-1.71-.17-2.54-13.5-.6-13.62,10.51c0,0,13.07,2.17,14.68-2.06S66.2,352,66.2,352Z" style="fill:#2AA499"></path><path d="M66.2,352s2.12-1.71-.17-2.54-13.5-.6-13.62,10.51c0,0,13.07,2.17,14.68-2.06S66.2,352,66.2,352Z" style="fill:#fff;opacity:0.2;isolation:isolate"></path><path d="M92.84,327.09s-2.12-1.71.16-2.55,13.5-.59,13.62,10.52c0,0-13.06,2.17-14.68-2.07S92.84,327.09,92.84,327.09Z" style="fill:#2AA499"></path><path d="M92.84,327.09s-2.12-1.71.16-2.55,13.5-.59,13.62,10.52c0,0-13.06,2.17-14.68-2.07S92.84,327.09,92.84,327.09Z" style="fill:#fff;opacity:0.2;isolation:isolate"></path><path d="M85.93,336s-.19-2.08,1.49-1.27,7.53,7.13,1.47,13.11c0,0-8.16-6-6.69-9.19S85.93,336,85.93,336Z" style="fill:#2AA499"></path><path d="M85.93,336s-.19-2.08,1.49-1.27,7.53,7.13,1.47,13.11c0,0-8.16-6-6.69-9.19S85.93,336,85.93,336Z" style="fill:#fff;opacity:0.2;isolation:isolate"></path><path d="M64.31,339s1.26-1.66-.59-1.87-10.17,2-8.23,10.31c0,0,10.12-.76,10.56-4.2S64.31,339,64.31,339Z" style="fill:#2AA499"></path><path d="M64.31,339s1.26-1.66-.59-1.87-10.17,2-8.23,10.31c0,0,10.12-.76,10.56-4.2S64.31,339,64.31,339Z" style="fill:#fff;opacity:0.2;isolation:isolate"></path><polygon points="98.51 416.58 63.77 416.58 60.02 378.55 102.25 378.55 98.51 416.58" style="fill:#2AA499"></polygon><polygon points="98.51 416.58 63.77 416.58 60.02 378.55 102.25 378.55 98.51 416.58" style="fill:#fff;opacity:0.5;isolation:isolate"></polygon><rect x="58.17" y="374.35" width="45.94" height="8.39" style="fill:#2AA499"></rect><rect x="58.17" y="374.35" width="45.94" height="8.39" style="fill:#fff;opacity:0.2;isolation:isolate"></rect></g><g id="freepik--Character--inject-336"><polygon points="390.56 255.56 386.18 255.56 373.97 327.22 378.35 327.22 390.56 255.56" style="fill:#2AA499"></polygon><polygon points="374.28 255.56 369.9 255.56 357.69 327.22 362.07 327.22 374.28 255.56" style="fill:#2AA499"></polygon><polygon points="358 255.56 353.62 255.56 341.41 327.22 345.79 327.22 358 255.56" style="fill:#2AA499"></polygon><polygon points="390.56 255.56 386.18 255.56 373.97 327.22 378.35 327.22 390.56 255.56" style="fill:#fff;opacity:0.6000000000000001;isolation:isolate"></polygon><polygon points="374.28 255.56 369.9 255.56 357.69 327.22 362.07 327.22 374.28 255.56" style="fill:#fff;opacity:0.6000000000000001;isolation:isolate"></polygon><polygon points="358 255.56 353.62 255.56 341.41 327.22 345.79 327.22 358 255.56" style="fill:#fff;opacity:0.6000000000000001;isolation:isolate"></polygon><polygon points="353.08 329.07 352.72 344.92 351.05 416.58 345.54 416.58 343.88 344.92 343.52 329.07 353.08 329.07" style="fill:#2AA499"></polygon><polygon points="353.08 329.07 352.72 344.92 351.05 416.58 345.54 416.58 343.88 344.92 343.52 329.07 353.08 329.07" style="fill:#fff;opacity:0.6000000000000001;isolation:isolate"></polygon><polygon points="353.08 329.07 352.72 345.35 343.88 345.35 343.52 329.07 353.08 329.07" style="opacity:0.2;isolation:isolate"></polygon><polygon points="382.98 416.32 377.89 330.19 369.58 330.19 376.7 416.32 382.98 416.32" style="fill:#2AA499"></polygon><polygon points="376.68 416.32 382.97 416.32 378.35 337.93 377.89 330.09 369.58 330.09 370.22 337.93 376.68 416.32" style="fill:#fff;opacity:0.6000000000000001;isolation:isolate"></polygon><polygon points="369.58 330.09 370.22 338.23 378.35 338.23 377.89 330.09 369.58 330.09" style="opacity:0.2;isolation:isolate"></polygon><polygon points="319.9 416.32 327.02 330.19 318.71 330.19 313.62 416.32 319.9 416.32" style="fill:#2AA499"></polygon><polygon points="319.92 416.32 326.38 337.93 327.02 330.09 318.7 330.09 318.25 337.93 313.63 416.32 319.92 416.32" style="fill:#fff;opacity:0.6000000000000001;isolation:isolate"></polygon><polygon points="327.02 330.09 326.38 338.23 318.25 338.23 318.7 330.09 327.02 330.09" style="opacity:0.2;isolation:isolate"></polygon><path d="M319.25,321.27h58.09a5,5,0,0,1,5,5v6.89a0,0,0,0,1,0,0H314.25a0,0,0,0,1,0,0v-6.89A5,5,0,0,1,319.25,321.27Z" style="fill:#2AA499"></path><path d="M383,263.84c-7.06-4.28-16.86-4.28-26.22,0-4.74,2.07-10.34,2.66-12.82-.33h0c-4.22-4.4,3.19-17.43,17.41-21.56,10.18-2.92,20.26-2.92,28.86,0,12,4.13,12.36,17.16,5.76,21.56h0C391.88,266.5,386.6,265.91,383,263.84Z" style="fill:#2AA499"></path><path d="M319.25,321.27h58.09a5,5,0,0,1,5,5v6.89a0,0,0,0,1,0,0H314.25a0,0,0,0,1,0,0v-6.89A5,5,0,0,1,319.25,321.27Z" style="opacity:0.4;isolation:isolate"></path><path d="M383,263.84c-7.06-4.28-16.86-4.28-26.22,0-4.74,2.07-10.34,2.66-12.82-.33h0c-4.22-4.4,3.19-17.43,17.41-21.56,10.18-2.92,20.26-2.92,28.86,0,12,4.13,12.36,17.16,5.76,21.56h0C391.88,266.5,386.6,265.91,383,263.84Z" style="opacity:0.4;isolation:isolate"></path><rect x="310.99" y="327.22" width="74.62" height="5.95" rx="2.01" style="fill:#2AA499"></rect><rect x="310.99" y="327.22" width="74.62" height="5.95" rx="2.01" style="fill:#fff;opacity:0.7000000000000001;isolation:isolate"></rect><g id="freepik--group--inject-336"><polygon points="298.75 215.33 295.85 218.32 299.82 228 299.32 234.58 302.99 235.6 304.1 228.84 305.66 224.94 298.75 215.33" style="fill:#ebb376"></polygon><path d="M332.81,246.3s-1.09.76-2.87,1.88c-3.9,2.47-11.12,6.72-17.39,8.71-4.19,1.31-8,1.61-10-.3-5.41-5-4.48-18.19-4-22.83.13-1,.22-1.64.22-1.64h4.64l1.67,1.78,7.63,8.1s11.75-19.86,19.48-22.09Z" style="fill:#2AA499"></path><path d="M305.06,233.9l-6.53-.14c.13-1,.22-1.64.22-1.64h4.64Z" style="opacity:0.4;isolation:isolate"></path><path d="M329.94,248.18c-3.9,2.47-11.12,6.72-17.39,8.71-.39-13,15.35-23,15.35-23Z" style="opacity:0.2;isolation:isolate"></path><path d="M247.33,407.5H257a.7.7,0,0,1,.68.55l1.57,7.1a1.17,1.17,0,0,1-.9,1.39l-.26,0c-3.14-.05-5.42-.24-9.36-.24-2.42,0-9.74.25-13.09.25s-3.78-3.31-2.41-3.61c6.15-1.34,10.77-3.2,12.74-5A1.92,1.92,0,0,1,247.33,407.5Z" style="fill:#2AA499"></path><path d="M272.44,407.25h9.69a.69.69,0,0,1,.68.54l1.58,7.11a1.18,1.18,0,0,1-.91,1.39,1.15,1.15,0,0,1-.26,0c-3.14-.06-5.42-.25-9.35-.25-2.43,0-9.75.26-13.09.26s-3.79-3.31-2.42-3.62c6.15-1.34,10.78-3.19,12.75-5A1.92,1.92,0,0,1,272.44,407.25Z" style="fill:#2AA499"></path><path d="M241.53,408.13l18.9-.08,13.49-80.83s35.86,5.51,64.72-1.73a51.93,51.93,0,0,0,11.55-4.21c24.92-13.25,25.7-42.47,25.7-42.47L319,278.29l-4.42,8s-47.08,8.77-61.42,17.74c-5,3.11-7.89,16.56-9.57,32.81C240.36,367.53,241.53,408.13,241.53,408.13Z" style="fill:#263238"></path><path d="M241.53,408.13l18.9-.08,13.49-80.83s35.86,5.51,64.72-1.73a101.71,101.71,0,0,0-14.05-31.86s-56.93,4.26-81,43.26C240.36,367.53,241.53,408.13,241.53,408.13Z" style="opacity:0.2;isolation:isolate"></path><polygon points="319.69 273.74 375.9 273.74 375.9 278.81 318.97 278.29 319.69 273.74"></polygon><rect x="355.82" y="271.45" width="2.01" height="9" style="fill:#263238"></rect><rect x="327.38" y="271.45" width="2.01" height="9" style="fill:#263238"></rect><rect x="334.91" y="272.85" width="10.4" height="5.68" style="fill:#fff"></rect><path d="M376.84,239c0,1.3,0,2.63,0,4,0,3.93-.08,8-.15,11.92,0,2.42-.1,4.75-.16,6.93-.08,2.81-.17,5.36-.29,7.5-.08,1.81-.19,3.32-.31,4.43H319.68s0-12.31,5.27-31.93v0a207.45,207.45,0,0,1,7.21-21.88,45.24,45.24,0,0,1,20.31-5.36c17.25,0,24.43,6.49,24.43,6.49S376.92,229.07,376.84,239Z" style="fill:#2AA499"></path><path d="M375.9,278.81s6.59,33.54-10.88,42.46-46.94,7.8-46.94,7.8L285.7,409.84l-17.12-1.79S279.81,314.49,294,303.37c3.84-3,46.08-12,46.08-12Z" style="fill:#263238"></path><path d="M326.3,237.5H304.59a1.4,1.4,0,0,1-1.29-1l-7.66-33.9a.81.81,0,0,1,.82-1h21.71a1.4,1.4,0,0,1,1.29,1l7.66,33.9A.81.81,0,0,1,326.3,237.5Z" style="fill:#2AA499"></path><path d="M326.3,237.5H304.59a1.4,1.4,0,0,1-1.29-1l-7.66-33.9a.81.81,0,0,1,.82-1h21.71a1.4,1.4,0,0,1,1.29,1l7.66,33.9A.81.81,0,0,1,326.3,237.5Z" style="fill:#fff;opacity:0.6000000000000001;isolation:isolate"></path><path d="M309.38,215.58c-1.33,0-2.11,1.37-1.73,3.06s1.78,3.06,3.12,3.06,2.11-1.37,1.73-3.06C311.16,218.64,309.76,217.27,309.38,215.58Z" style="fill:#263238"></path><path d="M300.88,207h-2.31a.53.53,0,0,1-.49-.4l-.63-2.78a.31.31,0,0,1,.32-.4h2.3a.53.53,0,0,1,.49.4l.63,2.78A.31.31,0,0,1,300.88,207Z" style="opacity:0.2;isolation:isolate"></path><path d="M298.94,204.48c.07.28-.07.51-.31.51a.63.63,0,0,1-.55-.51c-.07-.28.07-.51.31-.51A.63.63,0,0,1,298.94,204.48Z" style="fill:#263238"></path><path d="M300.23,204.48c.07.28-.07.51-.31.51a.63.63,0,0,1-.55-.51c-.07-.28.07-.51.31-.51A.63.63,0,0,1,300.23,204.48Z" style="fill:#263238"></path><path d="M299.28,206c.06.29-.08.51-.32.51a.62.62,0,0,1-.55-.51c-.06-.28.08-.51.32-.51A.63.63,0,0,1,299.28,206Z" style="fill:#263238"></path><path d="M300.57,206c.06.29-.08.51-.32.51a.62.62,0,0,1-.55-.51c-.06-.28.08-.51.32-.51A.63.63,0,0,1,300.57,206Z" style="fill:#263238"></path><path d="M319.46,202.56l7.66,33.9a.82.82,0,0,1-.82,1h-.9a.81.81,0,0,0,.81-1l-7.66-33.9a1.38,1.38,0,0,0-1.29-1h.91A1.38,1.38,0,0,1,319.46,202.56Z" style="opacity:0.2;isolation:isolate"></path><path d="M354.14,214.55c-9.08.1-12.53,1.73-13.11,3.53s2.6,5.74,8.73,6.34,15.22-3.59,16.65-6.22S359.46,214.49,354.14,214.55Z" style="opacity:0.4;isolation:isolate"></path><path d="M365.3,217.39c-4,4.1-12.33,5.76-16.47,5.35-2.26-.22-5.64-1.32-5.85-5.51,2.68-2.51,3.32-2.73,3.95-4.62a6.12,6.12,0,0,0-.2-3.66,17.84,17.84,0,0,0-.81-2.08l15.18-7.3C359.92,204.78,359.16,213.31,365.3,217.39Z" style="fill:#ebb376"></path><path d="M358.21,204.51c.59,6.49-7.32,7.92-11.28,8.1a6.12,6.12,0,0,0-.2-3.66Z" style="opacity:0.2;isolation:isolate"></path><path d="M358.57,181.46a11.39,11.39,0,0,0-16-2,10.6,10.6,0,0,0-3.22,4.11h0c-2.29,2.46-2.38,7.72-1,10.76h0c.11.7.25,1.39.41,2.08-.05,2-2.09,4.77,1.27,9.72,4.19,6.16,12.07,5.36,16.31,2.66l0,0a10.51,10.51,0,0,0,4.61-4.44,12.58,12.58,0,0,0,.85-1.79c1.76-4.55.49-9.06-1.05-16.28A11.42,11.42,0,0,0,358.57,181.46Z" style="fill:#ebb376"></path><path d="M349.19,191.89c.23.64,0,1.28-.45,1.39s-.92-.32-1.1-1,0-1.28.45-1.39S349,191.23,349.19,191.89Z" style="fill:#263238"></path><path d="M341.8,193.92a1.07,1.07,0,0,1-.45,1.4c-.42.11-.92-.33-1.1-1s0-1.27.45-1.39S341.63,193.3,341.8,193.92Z" style="fill:#263238"></path><path d="M344.24,193.6a24,24,0,0,1-1.59,6.45,3.93,3.93,0,0,0,3.31-.28Z" style="fill:#d58745"></path><path d="M350.93,188.52a.4.4,0,0,1-.42,0,3.22,3.22,0,0,0-2.87-.07.4.4,0,0,1-.55-.14.4.4,0,0,1,.15-.54h0a3.92,3.92,0,0,1,3.62,0,.4.4,0,0,1,.2.53h0A.53.53,0,0,1,350.93,188.52Z" style="fill:#263238"></path><path d="M338.33,192.64a.34.34,0,0,1-.41-.52h0a4,4,0,0,1,3-2.11.41.41,0,0,1,.43.37h0a.4.4,0,0,1-.36.42h0a3.21,3.21,0,0,0-2.33,1.71A.39.39,0,0,1,338.33,192.64Z" style="fill:#263238"></path><path d="M339,183.82c1.12-1.63,4-.18,4-.18s5.53-3.09,8.06-3.53,3.36,2.65,3.77,3.18-.32,2.1-.32,2.1,2.8,7.12,3.59,9.09l4.85,4.35a34.4,34.4,0,0,0-1-19.07c-3.52-10.31-20.08-5-23.42-.1C336.54,182.69,339,183.82,339,183.82Z" style="fill:#263238"></path><path d="M366.82,194.15a7.94,7.94,0,0,1-3.84,4.68c-2.45,1.3-4.27-.76-4.08-3.39.19-2.34,1.67-5.9,4.38-6.08S367.54,191.67,366.82,194.15Z" style="fill:#ebb376"></path><path d="M347.57,202.94a.49.49,0,0,1-.48-.39.5.5,0,0,1,.38-.6c2.8-.62,2.86-4.35,2.86-4.39a.51.51,0,0,1,.5-.5h0a.51.51,0,0,1,.49.51c0,1.57-.79,4.72-3.65,5.36Z" style="fill:#263238"></path><path d="M351.09,178.85s-2.71,5.11-7.46,6.46-5.21,1.46-6.19,3.29c0,0-2.89-2.48.44-8.14s15.72-9.57,18.41-6.13S351.09,178.85,351.09,178.85Z" style="fill:#263238"></path><path d="M350.05,179.66s.45,5.28,6.79,7.21,11.11-9.43-.55-12.54Z" style="fill:#263238"></path><path d="M340.46,197.94a2.79,2.79,0,1,1,2.79-2.79A2.79,2.79,0,0,1,340.46,197.94Zm0-5.08a2.29,2.29,0,1,0,2.29,2.29A2.3,2.3,0,0,0,340.46,192.86Z" style="fill:#263238"></path><path d="M348.17,196a2.79,2.79,0,1,1,2.79-2.79A2.79,2.79,0,0,1,348.17,196Zm0-5.08a2.29,2.29,0,1,0,2.29,2.29A2.29,2.29,0,0,0,348.17,190.89Z" style="fill:#263238"></path><path d="M342.91,194.76l-.08,0a.24.24,0,0,1-.15-.32,2,2,0,0,1,1-1,2.51,2.51,0,0,1,2.05.08.24.24,0,0,1,.14.32.25.25,0,0,1-.33.14,2.1,2.1,0,0,0-1.65-.09,1.43,1.43,0,0,0-.73.77A.26.26,0,0,1,342.91,194.76Z" style="fill:#263238"></path><path d="M350.61,192.77a.25.25,0,0,1-.23-.17.25.25,0,0,1,.16-.32l10-3a.25.25,0,0,1,.31.16.24.24,0,0,1-.17.31l-10,3Z" style="fill:#263238"></path><path d="M356.33,250a14.92,14.92,0,0,1-3.61,8.08,14.29,14.29,0,0,1-8,4.74,12.16,12.16,0,0,1-2.41.24c-6.91,0-11.84-5.85-11-13.06.05-.39.11-.79.19-1.17s.12-.57.2-.86a15.15,15.15,0,0,1,8.33-9.87,12.8,12.8,0,0,1,5.29-1.17,11,11,0,0,1,5.39,1.37A11.51,11.51,0,0,1,356.33,250Z" style="fill:#fff;opacity:0.6000000000000001;isolation:isolate"></path><path d="M356.33,250a14.92,14.92,0,0,1-3.61,8.08c-.9-.23.78-1.56.3-2.32-.69-1.08-.87-1.9-1.15-2.14s-1.48,0-2-.59a3,3,0,0,1-.57-2.61c.21-1.05,1.6-1.18,1.28-3.66s-1.18,0-2.49,0-1.12-.72-1.46-2.73.9-.82,2.43-.94,1.79-1.78,1.42-3a3.08,3.08,0,0,1,.24-1.83A11.51,11.51,0,0,1,356.33,250Z" style="opacity:0.2;isolation:isolate"></path><path d="M341.6,246.21a7.13,7.13,0,0,0-2.66,1c-1,.53-.38,2.2-2.33,1.49-1.6-.6-3.49.58-4.91-.69a15.15,15.15,0,0,1,8.33-9.87c.93.45,1,.87-.24,1.6-2.18,1.25-4.48,2-3,3.27s1.61.94,2.54,1.06,1.85-1.54,2.15,0S343.73,245.62,341.6,246.21Z" style="opacity:0.2;isolation:isolate"></path><path d="M344.74,262.86a12.16,12.16,0,0,1-2.41.24c-6.91,0-11.84-5.85-11-13.06.05-.39.11-.79.19-1.17,1.15,1,3.11,2.66,3.44,1.84s1.15-1.69,1.63-.67-.43,1.73-.24,2.09-1.16.7.57,1.3,2.63-1.06,2.81.59.92,3.55,1.62,2.67,1.77-2.79,1.08-3.15-1.54-.06-1.21-1-2.46,0-1.87-1.21.35-1.22,1.3-1.26,2.44-1.38,2.46,0-.32,1.26-.21,1.85a5.64,5.64,0,0,0,.55,1.65c.4,1-.05.82-.23,1.83s-1.57,1.84-2,2.79-.67,1.89.49,2,2.39-1.64,2.36.59A3.14,3.14,0,0,0,344.74,262.86Z" style="opacity:0.2;isolation:isolate"></path><path d="M298.75,215.33l2.69-.59,3.11,8.66-3.92,4.6S296.21,219.15,298.75,215.33Z" style="fill:#ebb376"></path><path d="M376.84,239c0,1.3,0,2.63,0,4,0,3.93-.08,8-.15,11.92,0,2.42-.1,4.75-.16,6.93-.08,2.81-.17,5.36-.29,7.5-7.15-6-10.46-17.46-10.46-17.46a66.85,66.85,0,0,1,0-9,19.54,19.54,0,0,1,5.09-10.72A27.14,27.14,0,0,1,376.84,239Z" style="opacity:0.2;isolation:isolate"></path><path d="M372.15,251.86a14.88,14.88,0,0,1-3.17-7.37,21.84,21.84,0,0,1,.38-7.51h0c1.83-8.5,7.54-15.93,7.54-15.93,5.82,4.27,18.52,17.9,20,31.63S381.83,263.88,372.15,251.86Z" style="fill:#2AA499"></path><path d="M369,244.49a21.84,21.84,0,0,1,.38-7.51h0s10.21,5.45,14.07,11.26C386.85,253.4,372.5,247.27,369,244.49Z" style="opacity:0.2;isolation:isolate"></path><rect x="339.23" y="235.73" width="12.26" height="17.26" rx="0.91" style="fill:#263238"></rect><path d="M353.93,250.66h-4.17v-1.5h4.17a1.14,1.14,0,0,0,1.14-1.14v-7.33a1.15,1.15,0,0,0-1.14-1.14h-4.17v-1.5h4.17a2.64,2.64,0,0,1,2.64,2.64V248A2.64,2.64,0,0,1,353.93,250.66Z" style="fill:#263238"></path><path d="M370.09,245.39l-4.79-1.24s-5.53-4.29-6.06-4.39-5.91.61-5.91.61v7.69s8.47,2.95,11.36.77l4.95,3.84Z" style="fill:#ebb376"></path><path d="M392.14,261.64c-8.6,3.21-21.18-5.71-25.15-8.78-.8-.62-1.25-1-1.25-1l1.66-8.58,1.53.21,14,1.91C388.79,249,402.47,257.79,392.14,261.64Z" style="fill:#2AA499"></path><path d="M368.93,243.48,367,252.86c-.8-.62-1.25-1-1.25-1l1.66-8.58Z" style="opacity:0.4;isolation:isolate"></path><path d="M345.45,228.33a2.7,2.7,0,0,0-.06,1.51c.11.48.26,1,.42,1.48a7.88,7.88,0,0,1,.3,1.66,1.81,1.81,0,0,1-.66,1.63,2.56,2.56,0,0,0-.12-1.51c-.15-.48-.33-1-.48-1.51a5,5,0,0,1-.23-1.71A1.79,1.79,0,0,1,345.45,228.33Z" style="fill:#fff;opacity:0.6000000000000001;isolation:isolate"></path><path d="M348,228.33a2.61,2.61,0,0,0-.06,1.51c.11.48.26,1,.42,1.48a7.29,7.29,0,0,1,.29,1.66,1.8,1.8,0,0,1-.65,1.63,2.56,2.56,0,0,0-.12-1.51c-.15-.48-.33-1-.49-1.51a5.57,5.57,0,0,1-.23-1.71A1.82,1.82,0,0,1,348,228.33Z" style="fill:#fff;opacity:0.6000000000000001;isolation:isolate"></path><path d="M342.92,228.33a2.7,2.7,0,0,0-.06,1.51c.11.48.26,1,.42,1.48a6.78,6.78,0,0,1,.3,1.66,1.79,1.79,0,0,1-.66,1.63,2.64,2.64,0,0,0-.11-1.51c-.16-.48-.33-1-.49-1.51a5,5,0,0,1-.23-1.71A1.82,1.82,0,0,1,342.92,228.33Z" style="fill:#fff;opacity:0.6000000000000001;isolation:isolate"></path></g></g><g id="freepik--Table--inject-336"><path d="M419.36,288.94s1.17-7.73-4.46-12.68-5.14-7.9-3.53-8.29,3.09,4.57,5.57,5.93c0,0,.08-7-2.44-9.66s-3.83-9.3-1.44-9.41,2.64,4,3.14,6.88,3.16,7,3.16,7,.52-6.31,2.15-8.91-2.71-8.55-1-11.15,4.65,2.35,4.4,7.93-4,11.51-3.1,17.33c0,0,1.64-4.08,3.11-4.45s3-3.08,3.95-4.08,2.23,2.47,0,5.69-7.93,11.83-7.06,18.79Z" style="fill:#2AA499"></path><path d="M416,285.42,414.15,297a5.89,5.89,0,0,0,5.81,6.82h2a5.89,5.89,0,0,0,5.81-6.82l-1.84-11.58Z" style="fill:#263238"></path><polygon points="432.44 416.58 427.96 416.58 421.96 310.32 429.44 310.32 432.44 416.58" style="fill:#2AA499"></polygon><polygon points="355.96 416.58 360.44 416.58 366.44 310.32 358.96 310.32 355.96 416.58" style="fill:#2AA499"></polygon><polygon points="391.9 416.58 396.5 416.58 398.5 310.32 389.9 310.32 391.9 416.58" style="fill:#2AA499"></polygon><g style="opacity:0.4;isolation:isolate"><polygon points="432.44 416.58 427.96 416.58 423.17 331.79 421.96 310.32 429.44 310.32 430.08 333.01 432.44 416.58" style="fill:#fff"></polygon><polygon points="366.44 310.32 365.8 321.69 360.44 416.58 355.96 416.58 358.67 320.43 358.96 310.32 366.44 310.32" style="fill:#fff"></polygon></g><polygon points="398.5 310.32 398.18 327.39 396.5 416.58 391.9 416.58 390.19 325.98 389.9 310.32 398.5 310.32" style="fill:#fff;opacity:0.4;isolation:isolate"></polygon><polygon points="358.96 310.32 366.44 310.32 365.8 321.69 358.67 320.43 358.96 310.32" style="opacity:0.2;isolation:isolate"></polygon><polygon points="389.9 310.32 398.5 310.32 398.18 327.39 390.19 325.98 389.9 310.32" style="opacity:0.2;isolation:isolate"></polygon><polygon points="430.08 333.01 423.17 331.79 421.96 310.32 429.44 310.32 430.08 333.01" style="opacity:0.2;isolation:isolate"></polygon><path d="M355.43,301.79H433a0,0,0,0,1,0,0v9.35a2.08,2.08,0,0,1-2.08,2.08H357.51a2.08,2.08,0,0,1-2.08-2.08v-9.35A0,0,0,0,1,355.43,301.79Z" style="fill:#2AA499"></path><path d="M355.43,301.79H433a0,0,0,0,1,0,0v9.35a2.08,2.08,0,0,1-2.08,2.08H357.51a2.08,2.08,0,0,1-2.08-2.08v-9.35A0,0,0,0,1,355.43,301.79Z" style="opacity:0.2;isolation:isolate"></path><path d="M440,305.83H348.4a2.37,2.37,0,0,1-2.37-2.37h0a2.38,2.38,0,0,1,2.37-2.38H440a2.39,2.39,0,0,1,2.38,2.38h0A2.38,2.38,0,0,1,440,305.83Z" style="fill:#2AA499"></path></g></svg>